<svg id="Capa_1" enable-background="new 0 0 512 512" height="512" viewBox="0 0 512 512" width="512" xmlns="http://www.w3.org/2000/svg"><g><g><circle cx="418.85" cy="64.215" r="8.373"/><path d="m431.845 29.149c-3.918-1.99-8.324-3.042-12.743-3.042-4.687 0-9.332 1.177-13.43 3.404-3.629 1.971-4.973 6.51-3.002 10.139 1.355 2.495 3.924 3.91 6.577 3.91 1.205 0 2.428-.293 3.562-.908 1.943-1.055 4.06-1.59 6.293-1.59 2.106 0 4.114.478 5.97 1.42 3.682 1.872 8.183.402 10.052-3.28 1.872-3.682.403-8.183-3.279-10.053z"/><path d="m453.455 9.539c-10.305-6.241-22.15-9.539-34.256-9.539-12.103 0-23.948 3.298-34.253 9.538-3.532 2.139-4.662 6.736-2.523 10.269 2.138 3.532 6.735 4.661 10.269 2.523 7.969-4.826 17.135-7.376 26.508-7.376 9.374 0 18.541 2.551 26.509 7.377 1.211.733 2.547 1.082 3.866 1.082 2.529 0 4.997-1.284 6.403-3.605 2.138-3.532 1.009-8.129-2.523-10.269z"/><path d="m261.874 289.215h.048 63.836c3.87-.016 7.503-1.538 10.23-4.285 2.726-2.748 4.219-6.393 4.203-10.234v-227.922c-.032-7.837-7.077-14.433-15.371-14.433-.02 0-.04 0-.061 0h-63.852c-7.742.031-13.555 6.396-13.521 14.775v227.922c.016 3.928 1.587 7.564 4.424 10.237 2.702 2.542 6.273 3.94 10.064 3.94zm.467-241.92h62.437c.116.007.306.088.46.183v226.784h-62.897z"/><path d="m132.866 385.982 156.679-.627c4.129-.017 7.463-3.377 7.447-7.507-.017-4.119-3.361-7.447-7.477-7.447-.01 0-.02 0-.031 0l-156.678.627c-4.13.017-7.464 3.378-7.447 7.507.017 4.12 3.361 7.447 7.477 7.447z"/><path d="m353.164.57h-283.905c-7.896 0-14.319 6.424-14.319 14.32v387.66c0 4.129 3.348 7.477 7.477 7.477s7.477-3.348 7.477-7.477v-50.346h282.635v114.963h-282.635v-29.559c0-4.129-3.348-7.477-7.477-7.477s-7.477 3.348-7.477 7.477l.095 58.836c.035 8.592 7.035 15.556 15.618 15.556h.064l24.807-.099c6.339-.025 11.968-3.815 14.379-9.669l8.833-20.11h184.983l9.039 20.273c2.446 5.82 8.077 9.564 14.395 9.564h.063l24.808-.099c8.559-.035 15.494-7.069 15.459-15.651v-481.319c0-7.896-6.423-14.32-14.319-14.32zm-256.994 495.74c-.032.073-.063.146-.093.22-.101.252-.342.416-.614.417l-24.808.099c-.151-.014-.34-.064-.47-.193-.129-.128-.196-.286-.196-.438v-14.293h32.412zm256.359-.071c.001.32-.175.665-.565.666l-24.808.099h-.002c-.271 0-.511-.161-.614-.411-.028-.068-.057-.136-.087-.203l-6.362-14.268h32.438zm-150.201-480.714h17.768v11.745h-17.768zm0 26.699h17.768v236.657h-17.768zm0 251.612h17.768v11.602h-17.768zm-132.434-278.311h117.479v289.913h-117.479zm282.635 289.913h-30.4c-4.129 0-7.477 3.348-7.477 7.477s3.348 7.477 7.477 7.477h30.4v16.859h-282.635v-16.859h216.512c4.129 0 7.477-3.348 7.477-7.477s-3.348-7.477-7.477-7.477h-51.356v-19.06c0-.007.001-.013.001-.019v-251.612c0-.007-.001-.013-.001-.019v-19.203h117.479z"/><path d="m158.584 94.684h-.003-61.002-.003c-7.307 0-13.251 5.945-13.251 13.251v.003 105.679c0 7.309 5.946 13.255 13.255 13.255h61.001c7.309 0 13.255-5.946 13.255-13.255v-105.678-.003c-.001-7.307-5.945-13.252-13.252-13.252zm-1.703 117.234h-57.602v-60.834h13.037c4.448 0 8.378-2.673 10.012-6.811l2.422-6.135h6.661l2.421 6.133c1.633 4.139 5.563 6.813 10.012 6.813h13.037zm0-75.788h-10.187l-2.421-6.134c-1.633-4.138-5.563-6.812-10.012-6.812h-12.363c-4.45 0-8.381 2.675-10.012 6.812l-2.421 6.134h-10.186v-26.492h57.603v26.492z"/></g></g></svg>