<?xml version="1.0" encoding="iso-8859-1"?>
<!-- Generator: Adobe Illustrator 19.0.0, SVG Export Plug-In . SVG Version: 6.00 Build 0)  -->
<svg version="1.1" id="Capa_1" xmlns="http://www.w3.org/2000/svg" xmlns:xlink="http://www.w3.org/1999/xlink" x="0px" y="0px"
	 viewBox="0 0 512 512" style="enable-background:new 0 0 512 512;" xml:space="preserve">
<g>
	<g>
		<rect x="160" y="330.667" width="21.333" height="64"/>
	</g>
</g>
<g>
	<g>
		<rect x="117.333" y="384" width="138.667" height="21.333"/>
	</g>
</g>
<g>
	<g>
		<path d="M416,213.333H309.333c-17.673,0-32,14.327-32,32V480c0,17.673,14.327,32,32,32H416c17.673,0,32-14.327,32-32V245.333
			C448,227.66,433.673,213.333,416,213.333z M426.667,480c0,5.891-4.776,10.667-10.667,10.667H309.333
			c-5.891,0-10.667-4.776-10.667-10.667V245.333c0-5.891,4.776-10.667,10.667-10.667H416c5.891,0,10.667,4.776,10.667,10.667V480z"
			/>
	</g>
</g>
<g>
	<g>
		<path d="M362.667,362.667c-17.673,0-32,14.327-32,32s14.327,32,32,32s32-14.327,32-32S380.34,362.667,362.667,362.667z
			 M362.667,405.333c-5.891,0-10.667-4.776-10.667-10.667S356.776,384,362.667,384s10.667,4.776,10.667,10.667
			S368.558,405.333,362.667,405.333z"/>
	</g>
</g>
<g>
	<g>
		<rect x="330.667" y="256" width="21.333" height="21.333"/>
	</g>
</g>
<g>
	<g>
		<rect x="373.333" y="256" width="21.333" height="21.333"/>
	</g>
</g>
<g>
	<g>
		<rect x="330.667" y="298.667" width="21.333" height="21.333"/>
	</g>
</g>
<g>
	<g>
		<rect x="373.333" y="298.667" width="21.333" height="21.333"/>
	</g>
</g>
<g>
	<g>
		<rect x="373.333" y="448" width="21.333" height="21.333"/>
	</g>
</g>
<g>
	<g>
		<rect x="330.667" y="448" width="21.333" height="21.333"/>
	</g>
</g>
<g>
	<g>
		<path d="M332.501,183.168l15.083,15.083c8.439-8.062,21.726-8.062,30.165,0l15.083-15.083
			C375.956,167.039,349.377,167.039,332.501,183.168z"/>
	</g>
</g>
<g>
	<g>
		<path d="M302.325,152.992l15.083,15.083c25.011-24.957,65.506-24.957,90.517,0l15.083-15.083
			C389.659,119.724,335.675,119.724,302.325,152.992z"/>
	</g>
</g>
<g>
	<g>
		<path d="M272.16,122.827l15.083,15.083c41.682-41.59,109.165-41.59,150.848,0l15.083-15.083
			C403.16,72.908,322.173,72.908,272.16,122.827z"/>
	</g>
</g>
<g>
	<g>
		<path d="M480,0H32C14.327,0,0,14.327,0,32v277.333c0,17.673,14.327,32,32,32h224V320H32c-5.891,0-10.667-4.776-10.667-10.667V32
			c0-5.891,4.776-10.667,10.667-10.667h448c5.891,0,10.667,4.776,10.667,10.667v277.333c0,5.891-4.776,10.667-10.667,10.667h-10.667
			v21.333H480c17.673,0,32-14.327,32-32V32C512,14.327,497.673,0,480,0z"/>
	</g>
</g>
<g>
	<g>
		<path d="M74.667,42.667c-17.673,0-32,14.327-32,32V96H64V74.667C64,68.776,68.776,64,74.667,64H96V42.667H74.667z"/>
	</g>
</g>
<g>
	<g>
		<rect x="42.667" y="117.333" width="21.333" height="21.333"/>
	</g>
</g>
<g>
	<g>
		<rect x="42.667" y="266.667" width="21.333" height="21.333"/>
	</g>
</g>
<g>
	<g>
		<rect x="85.333" y="266.667" width="170.667" height="21.333"/>
	</g>
</g>
<g>
</g>
<g>
</g>
<g>
</g>
<g>
</g>
<g>
</g>
<g>
</g>
<g>
</g>
<g>
</g>
<g>
</g>
<g>
</g>
<g>
</g>
<g>
</g>
<g>
</g>
<g>
</g>
<g>
</g>
</svg>
