<svg height="512" viewBox="0 0 64 64" width="512" xmlns="http://www.w3.org/2000/svg"><path d="M62 27H52v-3c0-.553-.447-1-1-1-1.53 0-2.885.706-3.803 1.792-.245-.15-.502-.281-.778-.373l-2.051-.685C43.55 23.462 43 22.7 43 21.838V21h11c1.103 0 2-.897 2-2V3c0-1.103-.897-2-2-2H26c-1.103 0-2 .897-2 2v16c0 1.103.897 2 2 2h11v.838c0 .862-.55 1.624-1.368 1.897l-2.051.684c-1.216.405-2.109 1.388-2.437 2.581H19V10c0-.553-.447-1-1-1H6c-.553 0-1 .447-1 1v17H2c-.553 0-1 .447-1 1v34c0 .553.447 1 1 1h4c.553 0 1-.447 1-1v-7h10v7c0 .553.447 1 1 1h4c.553 0 1-.447 1-1V35h23v7H33c-2.757 0-5 2.243-5 5v2c0 .553.447 1 1 1h8v.758c0 2.336-.87 4.533-2.441 6.242H33c-1.654 0-3 1.346-3 3s1.346 3 3 3h14c1.654 0 3-1.346 3-3s-1.346-3-3-3h-1.559C43.87 55.291 43 53.094 43 50.758V50h6c1.654 0 3-1.346 3-3V35h5v27c0 .553.447 1 1 1h4c.553 0 1-.447 1-1V28c0-.553-.447-1-1-1zM54 3l.001 12H26V3zM26 17h28.002v2H26zm8.214 9.315l2.051-.683C37.9 25.087 39 23.562 39 21.838V21h2v.838c0 1.725 1.1 3.249 2.735 3.794l2.051.684c.163.055.316.132.455.23-.047.152-.108.297-.14.455H33.315c.214-.313.522-.56.899-.686zM17 21H7v-4h10zm0-10v4H7v-4zM7 23h10v4H7zM5 61H3V35h2zm12-26v8H7v-8zM7 53v-8h10v8zm14 8h-2V35h2zm1-28H3v-4h43v4zm26-5c0-1.304.836-2.416 2-2.829V42h-2zm0 32c0 .552-.448 1-1 1H33c-.552 0-1-.448-1-1s.448-1 1-1h14c.552 0 1 .448 1 1zm-5.111-3h-5.778C38.339 55.168 39 53.014 39 50.758V50h2v.758c0 2.256.661 4.41 1.889 6.242zM50 47c0 .552-.448 1-1 1H30v-1c0-1.654 1.346-3 3-3h17zm2-18h9v4h-9zm9 32h-2V35h2z"/><path d="M10 37h4v2h-4zM10 47h4v2h-4z"/></svg>